<svg viewBox="0 0 338 52" xmlns="http://www.w3.org/2000/svg" xml:space="preserve" style="fill-rule:evenodd;clip-rule:evenodd;stroke-linejoin:round;stroke-miterlimit:2"><path d="M3910.96 1381.52c0-9.86 3.54-18.01 10.62-24.45 7.07-6.44 16.42-9.66 28.04-9.66 11.62 0 20.97 3.22 28.05 9.66 7.07 6.44 10.61 14.59 10.61 24.45 0 9.6-3.54 17.62-10.61 24.06-7.08 6.44-16.43 9.67-28.05 9.67-11.62 0-20.97-3.23-28.04-9.67-7.08-6.44-10.62-14.46-10.62-24.06Z" style="fill:#dbff00;fill-rule:nonzero" transform="translate(-204.445 -153.333) scale(.13597)"/><path d="M830.589 262.648c3.019 0 5.563.788 7.633 2.366 2.069 1.577 3.477 3.655 4.223 6.233v-8.243h2.29v27.63h-2.29v-8.243c-.746 2.578-2.154 4.656-4.223 6.233-2.07 1.577-4.614 2.366-7.633 2.366-2.578 0-4.859-.568-6.844-1.705-1.984-1.136-3.536-2.781-4.656-4.935-1.119-2.154-1.679-4.673-1.679-7.557 0-2.883.56-5.393 1.679-7.53 1.12-2.137 2.672-3.774 4.656-4.911 1.985-1.136 4.266-1.704 6.844-1.704Zm.509 2.035c-3.46 0-6.217 1.086-8.269 3.257-2.052 2.171-3.078 5.122-3.078 8.853 0 3.766 1.017 6.734 3.053 8.905 2.035 2.171 4.8 3.257 8.294 3.257 2.171 0 4.121-.501 5.851-1.501 1.73-1.001 3.079-2.426 4.046-4.275.966-1.848 1.45-3.977 1.45-6.386 0-2.408-.484-4.528-1.45-6.36-.967-1.832-2.316-3.248-4.046-4.249-1.73-1.001-3.68-1.501-5.851-1.501Zm33.939-2.035c3.494 0 6.378.907 8.651 2.722 2.272 1.815 3.663 4.215 4.172 7.2h-2.392c-.407-2.442-1.56-4.376-3.46-5.801-1.899-1.424-4.24-2.137-7.022-2.137-2.001 0-3.833.441-5.495 1.323-1.662.882-3.002 2.239-4.02 4.071-1.018 1.832-1.526 4.088-1.526 6.767 0 2.68.508 4.936 1.526 6.768 1.018 1.832 2.358 3.189 4.02 4.071 1.662.882 3.494 1.323 5.495 1.323 2.782 0 5.123-.713 7.022-2.137 1.9-1.425 3.053-3.359 3.46-5.801h2.392c-.509 3.019-1.9 5.436-4.172 7.251-2.273 1.815-5.157 2.722-8.651 2.722-2.612 0-4.927-.568-6.945-1.705-2.019-1.136-3.605-2.773-4.758-4.91s-1.73-4.664-1.73-7.582c0-2.883.577-5.393 1.73-7.53 1.153-2.137 2.739-3.774 4.758-4.911 2.018-1.136 4.333-1.704 6.945-1.704Zm30.632-7.938c-2.781 0-4.715.526-5.8 1.577-1.086 1.052-1.629 2.782-1.629 5.19v1.527h7.429v2.086h-7.429v25.544h-2.34V265.09h-4.275v-2.086h4.275v-1.679c0-2.952.771-5.148 2.315-6.59 1.543-1.441 4.028-2.145 7.454-2.111v2.086ZM910.49 261.652c2.202 0 4.094.499 5.677 1.497a8.691 8.691 0 0 1 3.457 4.076v-14.603h8.823v38.185h-8.823v-5.212a8.691 8.691 0 0 1-3.457 4.076c-1.583.998-3.475 1.497-5.677 1.497-2.373 0-4.497-.594-6.372-1.78-1.875-1.187-3.354-2.899-4.438-5.135-1.083-2.236-1.625-4.85-1.625-7.843 0-3.027.542-5.65 1.625-7.869 1.084-2.219 2.563-3.922 4.438-5.108 1.875-1.187 3.999-1.781 6.372-1.781Zm2.839 7.741c-1.892 0-3.415.619-4.567 1.857-1.153 1.239-1.729 2.959-1.729 5.16 0 2.202.576 3.922 1.729 5.16 1.152 1.239 2.675 1.858 4.567 1.858 1.857 0 3.379-.637 4.566-1.909 1.187-1.273 1.78-2.976 1.78-5.109 0-2.167-.593-3.878-1.78-5.134-1.187-1.256-2.709-1.883-4.566-1.883Zm44.685 6.243c0 .723-.086 1.514-.258 2.374h-19.969c.103 2.167.654 3.724 1.651 4.67.998.946 2.271 1.419 3.819 1.419 1.307 0 2.39-.327 3.25-.981a4.574 4.574 0 0 0 1.703-2.528h9.34a12.214 12.214 0 0 1-2.477 5.444c-1.273 1.599-2.89 2.855-4.85 3.766-1.961.912-4.146 1.368-6.554 1.368-2.82 0-5.323-.594-7.507-1.78-2.185-1.187-3.896-2.899-5.135-5.135-1.238-2.236-1.857-4.85-1.857-7.843 0-3.027.61-5.65 1.832-7.869 1.221-2.219 2.932-3.922 5.134-5.108 2.201-1.187 4.713-1.781 7.533-1.781 2.856 0 5.367.585 7.534 1.755 2.167 1.169 3.844 2.812 5.031 4.928 1.187 2.115 1.78 4.549 1.78 7.301Zm-8.927-1.341c.035-1.892-.473-3.311-1.522-4.257-1.049-.946-2.348-1.419-3.896-1.419-1.616 0-2.958.481-4.024 1.444-1.067.964-1.669 2.374-1.806 4.232h11.248Zm22.963 7.894 6.243-20.175h9.391l-10.216 28.793h-10.94l-10.217-28.793h9.392l6.347 20.175Zm42.78-6.553c0 .723-.09 1.514-.26 2.374h-19.971c.103 2.167.653 3.724 1.651 4.67.998.946 2.27 1.419 3.82 1.419 1.31 0 2.39-.327 3.25-.981a4.544 4.544 0 0 0 1.7-2.528h9.34c-.38 2.029-1.2 3.844-2.48 5.444-1.27 1.599-2.88 2.855-4.85 3.766-1.96.912-4.14 1.368-6.55 1.368-2.82 0-5.322-.594-7.507-1.78-2.184-1.187-3.895-2.899-5.134-5.135-1.238-2.236-1.857-4.85-1.857-7.843 0-3.027.61-5.65 1.831-7.869 1.222-2.219 2.933-3.922 5.135-5.108 2.201-1.187 4.712-1.781 7.532-1.781 2.86 0 5.37.585 7.53 1.755 2.17 1.169 3.85 2.812 5.04 4.928 1.18 2.115 1.78 4.549 1.78 7.301Zm-8.93-1.341c.03-1.892-.47-3.311-1.52-4.257-1.05-.946-2.35-1.419-3.9-1.419-1.616 0-2.957.481-4.024 1.444-1.066.964-1.668 2.374-1.806 4.232h11.25Zm18.47-21.673v38.185h-8.82v-38.185h8.82Zm102.29 9.03c2.38 0 4.5.594 6.38 1.781 1.87 1.186 3.35 2.889 4.43 5.108 1.09 2.219 1.63 4.842 1.63 7.869 0 2.993-.54 5.607-1.63 7.843-1.08 2.236-2.56 3.948-4.43 5.135-1.88 1.186-4 1.78-6.38 1.78-2.2 0-4.09-.499-5.67-1.497a8.636 8.636 0 0 1-3.46-4.076v18.937h-8.82v-42.518h8.82v5.211a8.636 8.636 0 0 1 3.46-4.076c1.58-.998 3.47-1.497 5.67-1.497Zm-2.83 7.741c-1.86 0-3.39.627-4.57 1.883-1.19 1.256-1.78 2.967-1.78 5.134 0 2.133.59 3.836 1.78 5.109 1.18 1.272 2.71 1.909 4.57 1.909 1.89 0 3.41-.619 4.56-1.858 1.15-1.238 1.73-2.958 1.73-5.16 0-2.201-.58-3.921-1.73-5.16-1.15-1.238-2.67-1.857-4.56-1.857Zm-16.12 7.017c0 8.145-6.62 14.758-14.76 14.758h-52.1c-8.14 0-14.75-6.613-14.75-14.758s6.61-14.758 14.75-14.758h52.1c8.14 0 14.76 6.613 14.76 14.758Zm-8.98 0c0-4.079-3.32-7.391-7.39-7.391h-48.93a7.393 7.393 0 0 0-7.39 7.391 7.393 7.393 0 0 0 7.39 7.391h48.93c4.07 0 7.39-3.312 7.39-7.391Z" style="fill:#362f73" transform="translate(-817.41 -252.622)"/></svg>